#!OML:ASF X:\für Bonn\!DataBase\2005_08_11_Bastian_Final\c3d\Bastian.ASF
:FULLY-SPECIFIED
:DEGREES
250
root -4.4212 17.2356 0.4817 168.252 -17.6311 -175.6
lowerback 17.8145 -1.08627 0.853736
upperback 7.69687 -2.45966 -1.78067
thorax -1.8465 -1.65061 -1.87736
lowerneck -7.41435 -9.65333 -1.0217
upperneck -14.4506 -13.6607 18.136
head -1.65868 -8.16004 5.43999
rclavicle 2.18663e-014 6.52014e-014
rhumerus -409.289 10.0944 -457.701
rradius 51.3235
rwrist -54.122
rhand -34.4067 1082.21
rfingers 7.12502
rthumb -7.57213 -27.6303
lclavicle 2.18663e-014 6.52014e-014
lhumerus -69.4179 29.4294 28.6235
lradius 22.16
lwrist -203.887
lhand -35.4646 2.70002
lfingers 7.12502
lthumb -8.59313 32.5051
rfemur -22.296 11.2826 22.9444
rtibia 33.0839
rfoot -1.56563 4.1926
rtoes -19.8299
lfemur 14.0439 2.85027 -15.2668
ltibia 22.3191
lfoot -16.8823 -9.30258
ltoes -5.36372
251
root -4.39081 17.245 0.611838 168.369 -17.1962 -175.655
lowerback 18.1544 -1.08013 0.819776
upperback 7.70539 -2.48309 -1.86833
thorax -2.01689 -1.67174 -1.93524
lowerneck -7.40314 -9.49063 -0.762341
upperneck -14.5693 -13.4736 18.0042
head -1.74409 -8.0953 5.38089
rclavicle -1.5704e-014 7.15625e-014
rhumerus -408.498 9.52768 -457.603
rradius 51.7123
rwrist -53.8541
rhand -34.6324 1082.84
rfingers 7.12502
rthumb -7.79001 -26.9996
lclavicle -1.5704e-014 7.15625e-014
lhumerus -69.8731 32.0644 25.9368
lradius 22.0322
lwrist -209.041
lhand -35.7959 3.55963
lfingers 7.12502
lthumb -8.91287 33.3514
rfemur -22.4771 10.198 23.0454
rtibia 33.2441
rfoot -1.74042 3.46728
rtoes -19.8817
lfemur 13.2885 2.98174 -15.4144
ltibia 22.7672
lfoot -16.8738 -9.00642
ltoes -5.57716
252
root -4.35994 17.2591 0.73948 168.472 -16.821 -175.716
lowerback 18.4724 -1.06967 0.776653
upperback 7.70515 -2.5001 -1.95447
thorax -2.18438 -1.68867 -1.98814
lowerneck -7.35096 -9.34761 -0.55402
upperneck -14.6777 -13.304 17.9398
head -1.8211 -8.0389 5.34931
rclavicle -8.74653e-015 -3.18055e-015
rhumerus -407.787 8.9885 -457.575
rradius 52.1684
rwrist -53.692
rhand -34.8394 1083.32
rfingers 7.12502
rthumb -7.98973 -26.5077
lclavicle -8.74653e-015 -3.18055e-015
lhumerus -70.3066 34.6973 23.381
lradius 21.9484
lwrist -214.259
lhand -35.979 4.40533
lfingers 7.12502
lthumb -9.08956 34.1895
rfemur -22.5749 9.06906 23.1809
rtibia 33.5198
rfoot -2.02871 2.57231
rtoes -20.1668
lfemur 12.5622 3.0026 -15.5813
ltibia 23.1966
lfoot -16.6998 -8.68801
ltoes -5.51659
253
root -4.32923 17.2754 0.861137 168.589 -16.4531 -175.78
lowerback 18.6995 -1.06197 0.732828
upperback 7.706 -2.51842 -2.04931
thorax -2.3041 -1.70457 -2.05257
lowerneck -7.34015 -9.21115 -0.313307
upperneck -14.6986 -13.1495 17.83
head -1.86992 -7.97968 5.29149
rclavicle -7.87187e-014 1.43125e-014
rhumerus -407.161 8.59183 -457.677
rradius 52.667
rwrist -53.6119
rhand -35.1455 1083.71
rfingers 7.12502
rthumb -8.28517 -26.1029
lclavicle -7.87187e-014 1.43125e-014
lhumerus -70.2711 36.8942 21.8641
lradius 22.0416
lwrist -218.472
lhand -35.9346 4.9704
lfingers 7.12502
lthumb -9.04672 34.7564
rfemur -22.6147 8.40222 23.283
rtibia 33.9222
rfoot -2.38929 0.984326
rtoes -19.8623
lfemur 11.8547 3.02207 -15.741
ltibia 23.5898
lfoot -16.4572 -8.37384
ltoes -5.12681
254
root -4.29861 17.2926 0.976957 168.649 -16.1341 -175.804
lowerback 18.8903 -1.06401 0.687514
upperback 7.73234 -2.55006 -2.09943
thorax -2.37626 -1.72824 -2.06791
lowerneck -7.32462 -9.07415 -0.123548
upperneck -14.7168 -12.9876 17.7284
head -1.91431 -7.91334 5.2435
rclavicle 2.94201e-014 5.40694e-014
rhumerus -406.696 8.44755 -457.871
rradius 53.3541
rwrist -53.6137
rhand -35.5217 1083.92
rfingers 7.12502
rthumb -8.64824 -25.8783
lclavicle 2.94201e-014 5.40694e-014
lhumerus -70.0923 38.9881 20.826
lradius 22.1989
lwrist -222.18
lhand -35.6731 5.308
lfingers 7.12502
lthumb -8.79436 35.1048
rfemur -22.5713 7.98998 23.4164
rtibia 34.4722
rfoot -2.85944 -1.15953
rtoes -19.3069
lfemur 11.2203 2.94496 -15.8704
ltibia 23.9213
lfoot -16.2211 -8.00799
ltoes -4.49158
255
root -4.26883 17.3103 1.08523 168.711 -15.8204 -175.815
lowerback 18.998 -1.06574 0.624854
upperback 7.7569 -2.57943 -2.13162
thorax -2.40601 -1.74945 -2.05744
lowerneck -7.27485 -8.93748 0.0505634
upperneck -14.728 -12.8206 17.6343
head -1.96033 -7.84329 5.20144
rclavicle -7.95139e-016 -3.02153e-014
rhumerus -406.358 8.53347 -458.183
rradius 54.1515
rwrist -53.7852
rhand -36.0176 1084.08
rfingers 7.12502
rthumb -9.12679 -25.7046
lclavicle -7.95139e-016 -3.02153e-014
lhumerus -69.9323 41.0745 19.8978
lradius 22.3613
lwrist -225.491
lhand -35.1755 5.45088
lfingers 7.12502
lthumb -8.3141 35.2673
rfemur -22.5152 7.25823 23.6103
rtibia 35.1719
rfoot -3.43231 -2.97717
rtoes -18.1864
lfemur 10.6441 2.8316 -15.9937
ltibia 24.1752
lfoot -16.0769 -7.56349
ltoes -4.02346
256
root -4.23903 17.3272 1.18477 168.775 -15.5532 -175.845
lowerback 18.9844 -1.06378 0.523555
upperback 7.80982 -2.60876 -2.14294
thorax -2.3408 -1.77103 -2.00762
lowerneck -7.24655 -8.82274 0.160459
upperneck -14.7012 -12.677 17.5384
head -1.98466 -7.77538 5.16358
rclavicle 6.08281e-014 -1.11319e-014
rhumerus -406.066 8.6739 -458.495
rradius 54.9196
rwrist -53.8703
rhand -36.489 1084.19
rfingers 7.12502
rthumb -9.58168 -25.5721
lclavicle 6.08281e-014 -1.11319e-014
lhumerus -69.9261 43.2403 18.9272
lradius 22.5415
lwrist -228.456
lhand -34.43 5.36616
lfingers 7.12502
lthumb -7.59467 35.2098
rfemur -22.4333 6.19022 23.8139
rtibia 36.0081
rfoot -4.03589 -4.30076
rtoes -16.5435
lfemur 10.1154 2.73935 -16.1182
ltibia 24.3787
lfoot -15.9201 -7.13786
ltoes -3.84711
257
root -4.21108 17.343 1.27789 168.812 -15.2703 -175.829
lowerback 18.9029 -1.06684 0.462748
upperback 7.87922 -2.6364 -2.14187
thorax -2.22368 -1.79114 -1.97078
lowerneck -7.24064 -8.6944 0.313172
upperneck -14.6537 -12.5219 17.4184
head -2.00481 -7.70087 5.11029
rclavicle -9.93923e-015 -4.13472e-014
rhumerus -405.805 9.00112 -458.892
rradius 55.636
rwrist -53.9448
rhand -36.913 1084.35
rfingers 7.12502
rthumb -9.99073 -25.3975
lclavicle -9.93923e-015 -4.13472e-014
lhumerus -69.8664 45.3091 18.1761
lradius 22.7204
lwrist -230.781
lhand -33.4562 5.1653
lfingers 7.12502
lthumb -6.65464 35.0407
rfemur -22.287 5.08174 24.0816
rtibia 36.953
rfoot -4.63452 -5.3392
rtoes -14.4815
lfemur 9.65595 2.66608 -16.1807
ltibia 24.5508
lfoot -15.8163 -6.68823
ltoes -3.95701
258
root -4.18308 17.3552 1.36724 168.82 -15.0126 -175.782
lowerback 18.8152 -1.0811 0.403528
upperback 7.92267 -2.67003 -2.09632
thorax -2.12932 -1.81229 -1.88625
lowerneck -7.14727 -8.58109 0.363642
upperneck -14.5905 -12.365 17.3309
head -2.02424 -7.61892 5.08531
rclavicle 3.69739e-014 4.13472e-014
rhumerus -405.593 9.41268 -459.258
rradius 56.2452
rwrist -53.9918
rhand -37.2176 1084.44
rfingers 7.12502
rthumb -10.2846 -25.2863
lclavicle 3.69739e-014 4.13472e-014
lhumerus -69.6431 47.1143 17.8696
lradius 22.8738
lwrist -232.163
lhand -32.2414 4.92292
lfingers 7.12502
lthumb -5.4818 34.832
rfemur -22.0695 4.06515 24.355
rtibia 37.9616
rfoot -5.26279 -6.41585
rtoes -11.9808
lfemur 9.23974 2.68345 -16.1653
ltibia 24.7107
lfoot -15.7017 -6.36483
ltoes -4.14468
